<svg xmlns="http://www.w3.org/2000/svg" xmlns:xlink="http://www.w3.org/1999/xlink" width="90" height="35" viewBox="0 0 90 35">
    <defs>
        <path id="prefix__a" d="M0 0L89.893 0 89.893 34.841 0 34.841z"/>
    </defs>
    <g fill="none" fill-rule="evenodd">
        <g transform="translate(-30 -25) translate(30 25)">
            <mask id="prefix__b" fill="#fff">
                <use xlink:href="#prefix__a"/>
            </mask>
            <path fill="#E30613" d="M65.642 4.779c2.533-2.929 6.248-4.78 10.4-4.78 7.65 0 13.851 6.276 13.851 14.016 0 7.741-6.2 14.016-13.85 14.016-1.706 0-3.352-.312-4.847-.883l-1.683-10.806c.937 2.77 3.518 4.758 6.542 4.758 3.82 0 6.916-3.172 6.916-7.085S79.874 6.93 76.055 6.93c-3.82 0-6.925 3.172-6.913 7.104l-.018 20.807h-6.998l.016-8.684c-2.032 1.187-4.397 1.874-6.913 1.874-4.1 0-7.777-1.803-10.307-4.667-2.536 2.851-6.217 4.675-10.306 4.675-4.134 0-7.839-1.833-10.368-4.74-2.539 2.916-6.28 4.74-10.42 4.74C6.177 28.04 0 21.764 0 14.024S6.178.008 13.827.008c1.849 0 3.6.367 5.226 1.032L20.3 11.493c-1.01-2.663-3.513-4.554-6.462-4.554-3.82 0-6.916 3.172-6.916 7.085s3.096 7.085 6.916 7.085c3.811 0 6.903-3.159 6.916-7.06 0-7.74 6.212-14.04 13.861-14.04 4.091 0 7.755 1.794 10.304 4.648C47.433 1.782 51.12 0 55.229 0c4.125 0 7.876 1.88 10.413 4.779m-30.976 16.33c3.82 0 6.916-3.172 6.916-7.085s-3.097-7.085-6.916-7.085c-3.82 0-6.917 3.172-6.917 7.085s3.097 7.085 6.917 7.085M55.24 21.1c3.82 0 6.916-3.172 6.916-7.085S59.06 6.93 55.24 6.93c-3.82 0-6.916 3.172-6.916 7.085S51.421 21.1 55.24 21.1" mask="url(#prefix__b)"/>
        </g>
    </g>
</svg>